<svg id="visual" viewBox="0 0 900 600" width="900" height="600" xmlns="http://www.w3.org/2000/svg" xmlns:xlink="http://www.w3.org/1999/xlink" version="1.1"><rect x="0" y="0" width="900" height="600" fill="#000000"></rect><g transform="translate(459.46592659796545 324.1164429449425)"><path d="M174.6 -249.9C225 -203.7 263.7 -151 285.8 -91C307.8 -31 313.2 36.3 284 81.8C254.7 127.3 190.8 151 137.7 187.8C84.6 224.5 42.3 274.2 0.2 274C-41.9 273.7 -83.9 223.4 -138.5 187.2C-193.2 151 -260.7 128.8 -295.7 81.7C-330.7 34.7 -333.2 -37.2 -296.9 -80.2C-260.6 -123.3 -185.4 -137.5 -129.4 -181.8C-73.5 -226.1 -36.7 -300.6 12.7 -318C62.1 -335.5 124.2 -296 174.6 -249.9" fill="#131f0d"></path></g></svg>