<svg id="visual" viewBox="0 0 900 600" width="900" height="600" xmlns="http://www.w3.org/2000/svg" xmlns:xlink="http://www.w3.org/1999/xlink" version="1.1"><rect width="900" height="600" fill="#000000"></rect><g><g transform="translate(217 447)"><path d="M0 -60L57 -18.5L35.2 48.5L-35.2 48.5L-57 -18.5Z" fill="none" stroke="#ffffff" stroke-width="2"></path></g><g transform="translate(11 4)"><path d="M0 -52L49.5 -16.1L30.6 42.1L-30.6 42.1L-49.5 -16.1Z" fill="none" stroke="#ffffff" stroke-width="2"></path></g><g transform="translate(330 258)"><path d="M0 -14L13.3 -4.3L8.2 11.3L-8.2 11.3L-13.3 -4.3Z" fill="none" stroke="#ffffff" stroke-width="2"></path></g><g transform="translate(639 586)"><path d="M0 -54L51.4 -16.7L31.7 43.7L-31.7 43.7L-51.4 -16.7Z" fill="none" stroke="#ffffff" stroke-width="2"></path></g><g transform="translate(895 426)"><path d="M0 -44L41.8 -13.6L25.9 35.6L-25.9 35.6L-41.8 -13.6Z" fill="none" stroke="#ffffff" stroke-width="2"></path></g><g transform="translate(53 155)"><path d="M0 -51L48.5 -15.8L30 41.3L-30 41.3L-48.5 -15.8Z" fill="none" stroke="#ffffff" stroke-width="2"></path></g><g transform="translate(427 145)"><path d="M0 -55L52.3 -17L32.3 44.5L-32.3 44.5L-52.3 -17Z" fill="none" stroke="#ffffff" stroke-width="2"></path></g><g transform="translate(339 400)"><path d="M0 -18L17.1 -5.6L10.6 14.6L-10.6 14.6L-17.1 -5.6Z" fill="none" stroke="#ffffff" stroke-width="2"></path></g><g transform="translate(592 19)"><path d="M0 -19L18.1 -5.9L11.2 15.4L-11.2 15.4L-18.1 -5.9Z" fill="none" stroke="#ffffff" stroke-width="2"></path></g><g transform="translate(732 490)"><path d="M0 -54L51.4 -16.7L31.7 43.7L-31.7 43.7L-51.4 -16.7Z" fill="none" stroke="#ffffff" stroke-width="2"></path></g><g transform="translate(789 277)"><path d="M0 -58L55.2 -17.9L34.1 46.9L-34.1 46.9L-55.2 -17.9Z" fill="none" stroke="#ffffff" stroke-width="2"></path></g><g transform="translate(587 457)"><path d="M0 -46L43.7 -14.2L27 37.2L-27 37.2L-43.7 -14.2Z" fill="none" stroke="#ffffff" stroke-width="2"></path></g><g transform="translate(462 27)"><path d="M0 -29L27.6 -9L17 23.5L-17 23.5L-27.6 -9Z" fill="none" stroke="#ffffff" stroke-width="2"></path></g><g transform="translate(747 76)"><path d="M0 -32L30.4 -9.9L18.8 25.9L-18.8 25.9L-30.4 -9.9Z" fill="none" stroke="#ffffff" stroke-width="2"></path></g><g transform="translate(208 264)"><path d="M0 -28L26.6 -8.7L16.5 22.7L-16.5 22.7L-26.6 -8.7Z" fill="none" stroke="#ffffff" stroke-width="2"></path></g><g transform="translate(103 334)"><path d="M0 -28L26.6 -8.7L16.5 22.7L-16.5 22.7L-26.6 -8.7Z" fill="none" stroke="#ffffff" stroke-width="2"></path></g><g transform="translate(880 60)"><path d="M0 -52L49.5 -16.1L30.6 42.1L-30.6 42.1L-49.5 -16.1Z" fill="none" stroke="#ffffff" stroke-width="2"></path></g><g transform="translate(340 536)"><path d="M0 -40L38 -12.4L23.5 32.4L-23.5 32.4L-38 -12.4Z" fill="none" stroke="#ffffff" stroke-width="2"></path></g><g transform="translate(588 302)"><path d="M0 -56L53.3 -17.3L32.9 45.3L-32.9 45.3L-53.3 -17.3Z" fill="none" stroke="#ffffff" stroke-width="2"></path></g><g transform="translate(335 5)"><path d="M0 -29L27.6 -9L17 23.5L-17 23.5L-27.6 -9Z" fill="none" stroke="#ffffff" stroke-width="2"></path></g><g transform="translate(277 123)"><path d="M0 -43L40.9 -13.3L25.3 34.8L-25.3 34.8L-40.9 -13.3Z" fill="none" stroke="#ffffff" stroke-width="2"></path></g><g transform="translate(671 193)"><path d="M0 -20L19 -6.2L11.8 16.2L-11.8 16.2L-19 -6.2Z" fill="none" stroke="#ffffff" stroke-width="2"></path></g><g transform="translate(444 336)"><path d="M0 -15L14.3 -4.6L8.8 12.1L-8.8 12.1L-14.3 -4.6Z" fill="none" stroke="#ffffff" stroke-width="2"></path></g><g transform="translate(110 566)"><path d="M0 -23L21.9 -7.1L13.5 18.6L-13.5 18.6L-21.9 -7.1Z" fill="none" stroke="#ffffff" stroke-width="2"></path></g><g transform="translate(477 592)"><path d="M0 -55L52.3 -17L32.3 44.5L-32.3 44.5L-52.3 -17Z" fill="none" stroke="#ffffff" stroke-width="2"></path></g><g transform="translate(36 437)"><path d="M0 -18L17.1 -5.6L10.6 14.6L-10.6 14.6L-17.1 -5.6Z" fill="none" stroke="#ffffff" stroke-width="2"></path></g><g transform="translate(449 466)"><path d="M0 -31L29.5 -9.6L18.2 25.1L-18.2 25.1L-29.5 -9.6Z" fill="none" stroke="#ffffff" stroke-width="2"></path></g><g transform="translate(140 40)"><path d="M0 -51L48.5 -15.8L30 41.3L-30 41.3L-48.5 -15.8Z" fill="none" stroke="#ffffff" stroke-width="2"></path></g><g transform="translate(895 591)"><path d="M0 -31L29.5 -9.6L18.2 25.1L-18.2 25.1L-29.5 -9.6Z" fill="none" stroke="#ffffff" stroke-width="2"></path></g><g transform="translate(894 210)"><path d="M0 -20L19 -6.2L11.8 16.2L-11.8 16.2L-19 -6.2Z" fill="none" stroke="#ffffff" stroke-width="2"></path></g><g transform="translate(561 143)"><path d="M0 -14L13.3 -4.3L8.2 11.3L-8.2 11.3L-13.3 -4.3Z" fill="none" stroke="#ffffff" stroke-width="2"></path></g></g></svg>