<svg id="visual" viewBox="0 0 900 600" width="900" height="600" xmlns="http://www.w3.org/2000/svg" xmlns:xlink="http://www.w3.org/1999/xlink" version="1.1"><path d="M0 163L82 163L164 121L245 139L327 121L409 91L491 187L573 121L655 109L736 193L818 97L900 109L900 0L818 0L736 0L655 0L573 0L491 0L409 0L327 0L245 0L164 0L82 0L0 0Z" fill="#000000"></path><path d="M0 325L82 349L164 319L245 355L327 313L409 331L491 397L573 331L655 295L736 325L818 271L900 277L900 107L818 95L736 191L655 107L573 119L491 185L409 89L327 119L245 137L164 119L82 161L0 161Z" fill="#3b3b3b"></path><path d="M0 385L82 421L164 397L245 403L327 403L409 433L491 463L573 409L655 337L736 397L818 361L900 355L900 275L818 269L736 323L655 293L573 329L491 395L409 329L327 311L245 353L164 317L82 347L0 323Z" fill="#777777"></path><path d="M0 505L82 475L164 511L245 523L327 505L409 547L491 535L573 511L655 439L736 487L818 463L900 469L900 353L818 359L736 395L655 335L573 407L491 461L409 431L327 401L245 401L164 395L82 419L0 383Z" fill="#b9b9b9"></path><path d="M0 601L82 601L164 601L245 601L327 601L409 601L491 601L573 601L655 601L736 601L818 601L900 601L900 467L818 461L736 485L655 437L573 509L491 533L409 545L327 503L245 521L164 509L82 473L0 503Z" fill="#ffffff"></path></svg>