<svg width="50" height="50" viewBox="0 0 50 50" fill="none" xmlns="http://www.w3.org/2000/svg">
<path fill-rule="evenodd" clip-rule="evenodd" d="M47.5338 20.3689C47.2324 18.8914 46.7792 17.4363 46.193 16.0463C45.6171 14.6814 44.9025 13.3677 44.0725 12.1395C43.2491 10.9216 42.3047 9.77723 41.2644 8.73797C40.2251 7.69685 39.0797 6.75156 37.8627 5.93002C36.6344 5.09731 35.3188 4.38555 33.9557 3.80777C32.5656 3.22255 31.1113 2.76851 29.6328 2.46892C28.1189 2.15817 26.5594 2 25.0019 2C23.4424 2 21.8848 2.15817 20.3691 2.46892C18.8915 2.76851 17.4363 3.22348 16.0471 3.80777C14.684 4.38555 13.3683 5.09824 12.1383 5.93002C10.9203 6.75156 9.77584 7.69592 8.73652 8.73797C7.69627 9.77723 6.75278 10.9226 5.93026 12.1395C5.09936 13.3677 4.3857 14.6814 3.80974 16.0463C3.22076 17.4363 2.76949 18.8914 2.46709 20.3689C2.15725 21.8808 2 23.4402 2 24.9986C2 26.5598 2.15725 28.1192 2.46709 29.632C2.76949 31.1095 3.22169 32.5646 3.80881 33.9537C4.38476 35.3168 5.09936 36.6342 5.92933 37.8623C6.75185 39.0802 7.69534 40.2228 8.73559 41.2639C9.77491 42.3032 10.9203 43.2466 12.1373 44.07C13.3674 44.9008 14.6831 45.6144 16.0462 46.1904C17.4344 46.7793 18.8906 47.2278 20.3682 47.5311C21.8839 47.8437 23.4415 48 25.0009 48C26.5585 48 28.118 47.8437 29.6318 47.5311C31.1112 47.2278 32.5646 46.7784 33.9547 46.1904C35.3178 45.6144 36.6335 44.8999 37.8617 44.07C39.0797 43.2466 40.2242 42.3041 41.2635 41.2639C42.3028 40.2228 43.2481 39.0793 44.0716 37.8623C44.9025 36.6342 45.6162 35.3168 46.1921 33.9537C46.7792 32.5656 47.2314 31.1095 47.5329 29.632C47.8437 28.1182 48 26.5589 48 24.9986C48.0009 23.4402 47.8446 21.8808 47.5338 20.3689ZM44.6364 24.8042C44.3526 24.7427 37.7054 23.3118 30.9559 24.1603C30.8182 23.8244 30.6777 23.4858 30.5325 23.1462C30.124 22.1851 29.6839 21.2323 29.2261 20.2973C36.9843 17.1321 40.1339 12.5777 40.1702 12.5238C42.9253 15.8676 44.5917 20.1419 44.6364 24.8042ZM37.9743 10.2582C37.925 10.3345 35.128 14.5921 27.7141 17.3712C24.3561 11.2017 20.6669 6.30125 20.3719 5.91234C21.8569 5.55227 23.4052 5.35782 25.0009 5.35782C29.9752 5.35782 34.513 7.21118 37.9743 10.2582ZM20.2956 5.92816C20.2956 5.93002 20.2919 5.93188 20.2919 5.93188C20.2919 5.93188 20.2705 5.93746 20.2342 5.9449C20.2537 5.93932 20.2761 5.9356 20.2956 5.92816ZM16.6194 7.23444C16.8808 7.5852 20.5143 12.5098 23.9142 18.5518C14.4821 21.0574 6.29686 20.9597 5.77766 20.9504C7.05425 14.8665 11.1418 9.82189 16.6194 7.23444ZM5.35802 24.9986C5.35802 24.7893 5.36733 24.5846 5.37477 24.378C5.7209 24.3855 15.4274 24.606 25.5406 21.5794C26.1035 22.681 26.6423 23.8002 27.1345 24.9186C26.8749 24.9912 26.6162 25.0693 26.3603 25.1531C15.7596 28.5788 10.3825 38.1173 10.3825 38.1173C10.3825 38.1173 10.3899 38.1229 10.3899 38.1266C7.26267 34.6459 5.35802 30.0451 5.35802 24.9986ZM25.0009 44.6422C20.2472 44.6422 15.8871 42.9526 12.4891 40.1409C12.7468 40.3502 12.9292 40.4842 12.9292 40.4842C12.9292 40.4842 16.6947 32.2725 28.3431 28.2141C28.3869 28.1973 28.4306 28.1852 28.4743 28.1722C31.2387 35.354 32.3795 41.369 32.6707 43.0856C30.3129 44.0886 27.7216 44.6422 25.0009 44.6422ZM35.9775 41.2918C35.7775 40.1055 34.7307 34.3408 32.1543 27.2613C38.4944 26.2472 43.9907 27.9861 44.3954 28.1192C43.5208 33.5918 40.3879 38.3127 35.9775 41.2918Z" fill="white"/>
</svg>
