<svg width="50" height="50" viewBox="0 0 50 50" fill="none" xmlns="http://www.w3.org/2000/svg">
<path d="M25 12.5161C18.2258 12.5161 12.6129 18.0322 12.6129 24.9032C12.6129 31.7742 18.129 37.2903 25 37.2903C31.871 37.2903 37.3871 31.6774 37.3871 24.9032C37.3871 18.129 31.7742 12.5161 25 12.5161ZM25 32.8387C20.6452 32.8387 17.0645 29.258 17.0645 24.9032C17.0645 20.5484 20.6452 16.9677 25 16.9677C29.3549 16.9677 32.9355 20.5484 32.9355 24.9032C32.9355 29.258 29.3549 32.8387 25 32.8387Z" fill="white"/>
<path d="M37.8709 15.0322C39.4209 15.0322 40.6774 13.7757 40.6774 12.2258C40.6774 10.6758 39.4209 9.41931 37.8709 9.41931C36.3209 9.41931 35.0645 10.6758 35.0645 12.2258C35.0645 13.7757 36.3209 15.0322 37.8709 15.0322Z" fill="white"/>
<path d="M45.129 4.96774C42.6129 2.35484 39.0323 1 34.9677 1H15.0323C6.6129 1 1 6.6129 1 15.0323V34.871C1 39.0323 2.35484 42.6129 5.06452 45.2258C7.67742 47.7419 11.1613 49 15.129 49H34.871C39.0323 49 42.5161 47.6452 45.0323 45.2258C47.6452 42.7097 49 39.129 49 34.9677V15.0323C49 10.9677 47.6452 7.48387 45.129 4.96774ZM44.7419 34.9677C44.7419 37.9677 43.6774 40.3871 41.9355 42.0323C40.1935 43.6774 37.7742 44.5484 34.871 44.5484H15.129C12.2258 44.5484 9.80645 43.6774 8.06452 42.0323C6.32258 40.2903 5.45161 37.871 5.45161 34.871V15.0323C5.45161 12.129 6.32258 9.70968 8.06452 7.96774C9.70968 6.32258 12.2258 5.45161 15.129 5.45161H35.0645C37.9677 5.45161 40.3871 6.32258 42.129 8.06452C43.7742 9.80645 44.7419 12.2258 44.7419 15.0323V34.9677Z" fill="white"/>
</svg>
