<svg width="50" height="50" viewBox="0 0 50 50" fill="none" xmlns="http://www.w3.org/2000/svg">
<g clip-path="url(#clip0_467_604)">
<path d="M36.2429 49.6428H13.7572C10.2044 49.639 6.79829 48.2261 4.28612 45.7139C1.77396 43.2017 0.360959 39.7956 0.357178 36.2428V13.7571C0.360959 10.2044 1.77396 6.79823 4.28612 4.28606C6.79829 1.77389 10.2044 0.360898 13.7572 0.357117H36.2429C39.7956 0.360898 43.2018 1.77389 45.7139 4.28606C48.2261 6.79823 49.6391 10.2044 49.6429 13.7571V36.2428C49.6391 39.7956 48.2261 43.2017 45.7139 45.7139C43.2018 48.2261 39.7956 49.639 36.2429 49.6428ZM13.7572 3.92855C11.1516 3.93232 8.6539 4.96904 6.8115 6.81144C4.96911 8.65384 3.93238 11.1516 3.92861 13.7571V36.2428C3.93238 38.8484 4.96911 41.3461 6.8115 43.1885C8.6539 45.0309 11.1516 46.0676 13.7572 46.0714H36.2429C38.8484 46.0676 41.3462 45.0309 43.1886 43.1885C45.031 41.3461 46.0677 38.8484 46.0715 36.2428V13.7571C46.0677 11.1516 45.031 8.65384 43.1886 6.81144C41.3462 4.96904 38.8484 3.93232 36.2429 3.92855H13.7572Z" fill="white"/>
<path d="M14.9429 21.1714H14.9286C13.5794 21.1714 12.4857 22.2652 12.4857 23.6143V34.3857C12.4857 35.7349 13.5794 36.8286 14.9286 36.8286H14.9429C16.292 36.8286 17.3857 35.7349 17.3857 34.3857V23.6143C17.3857 22.2652 16.292 21.1714 14.9429 21.1714Z" fill="white"/>
<path d="M14.9428 13.1714C14.4556 13.1686 13.9786 13.3107 13.5724 13.5796C13.1661 13.8485 12.849 14.2321 12.6612 14.6816C12.4735 15.1312 12.4236 15.6264 12.518 16.1044C12.6123 16.5824 12.8466 17.0215 13.1911 17.366C13.5356 17.7105 13.9747 17.9448 14.4527 18.0392C14.9307 18.1335 15.4259 18.0836 15.8755 17.8959C16.325 17.7082 16.7086 17.391 16.9775 16.9847C17.2464 16.5785 17.3885 16.1015 17.3857 15.6143C17.3819 14.9676 17.1234 14.3484 16.666 13.8911C16.2087 13.4338 15.5896 13.1752 14.9428 13.1714Z" fill="white"/>
<path d="M28.5714 24.5143C29.0476 24.3803 29.549 24.3623 30.0336 24.4617C30.5183 24.5611 30.9721 24.7751 31.3571 25.0857C31.806 25.6122 32.1437 26.2241 32.3499 26.8845C32.5562 27.5449 32.6266 28.2402 32.5571 28.9286V34.3857C32.5609 35.0349 32.8214 35.6562 33.2818 36.1139C33.7422 36.5717 34.365 36.8286 35.0143 36.8286C35.6621 36.8286 36.2835 36.5712 36.7416 36.1131C37.1997 35.6549 37.4571 35.0336 37.4571 34.3857V27.2429C37.4483 25.7326 37.0339 24.2524 36.2571 22.9571L36.1857 22.8714C35.6417 22.1873 34.9479 21.637 34.1579 21.2631C33.3678 20.8891 32.5025 20.7014 31.6285 20.7143C30.6613 20.6448 29.693 20.833 28.8222 21.2596C27.9515 21.6862 27.2093 22.336 26.6714 23.1429L26.0143 24.1V23.5286C26.0143 22.8807 25.7569 22.2593 25.2988 21.8012C24.8406 21.3431 24.2193 21.0857 23.5714 21.0857C22.9235 21.0857 22.3022 21.3431 21.844 21.8012C21.3859 22.2593 21.1285 22.8807 21.1285 23.5286V34.3C21.1285 34.9479 21.3859 35.5692 21.844 36.0274C22.3022 36.4855 22.9235 36.7429 23.5714 36.7429C23.8927 36.7447 24.2112 36.6829 24.5085 36.5608C24.8057 36.4387 25.0758 36.2588 25.303 36.0316C25.5302 35.8044 25.7101 35.5343 25.8322 35.2371C25.9543 34.9398 26.0161 34.6213 26.0143 34.3V27.1429C26.9714 24.7143 28.5714 24.5286 28.5714 24.5143Z" fill="white"/>
</g>
<defs>
<clipPath id="clip0_467_604">
<rect width="50" height="50" fill="white"/>
</clipPath>
</defs>
</svg>
