<?xml version="1.0" encoding="UTF-8"?>
<svg xmlns="http://www.w3.org/2000/svg" viewBox="0 0 280.15 280.15">
  <defs>
    <style>.cls-1{fill:#354248;}.cls-2{fill:#fff;}</style>
  </defs>
  <title>Element 1300</title>
  <g id="Ebene_2" data-name="Ebene 2">
    <g id="Ebene_1-2" data-name="Ebene 1">
      <path class="cls-1" d="M237.05,0H43.1S0,0,0,43.1v194s0,43.1,43.1,43.1h194s43.1,0,43.1-43.1V43.1S280.15,0,237.05,0Z"></path>
      <path class="cls-2" d="M202.18,52.7H78c-8.51,0-24.59,5.14-24.59,24.59v87c0,8.5,5.14,24.59,24.59,24.59h32.21V206H70.78s-8.28,0-8.28,8.29v13.2H217.66v-13.2s0-8.29-8.28-8.29H170V188.83h32.2c8.51,0,24.6-5.14,24.6-24.59V77.29C226.78,68.78,221.64,52.7,202.18,52.7ZM219,164.24c0,16.19-15.09,16.78-16.8,16.79H78c-16.18,0-16.78-15.09-16.79-16.79V77.29C61.18,61.11,76.27,60.51,78,60.5H202.18c16.19,0,16.78,15.09,16.8,16.79Z"></path>
      <path class="cls-2" d="M167.24,89.92a37.46,37.46,0,0,0-52.74,0s0,0,0,0l12.46,12.39.25-.26a24.17,24.17,0,0,1,34.05,0,23.82,23.82,0,0,1,0,33.83l-.23.21L144.75,120,128,136.62c-.26-.24-.54-.46-.8-.71a23.82,23.82,0,0,1-.25-33.57L114.49,89.93a42.33,42.33,0,0,0,0,60.09,40.14,40.14,0,0,0,3.24,2.91c.28.22.57.41.84.62.86.66,1.73,1.32,2.62,1.91.51.33,1,.61,1.56.91.69.42,1.37.86,2.08,1.23s1.62.76,2.43,1.12c.46.2.9.44,1.37.63.93.38,1.89.68,2.85,1,.35.12.7.27,1.06.37,1.16.34,2.33.61,3.5.85l.51.12c1.18.23,2.37.39,3.57.52.16,0,.33.05.49.07A42.84,42.84,0,0,0,175,150l-7.74-7.7A36.88,36.88,0,0,0,167.24,89.92Z"></path>
    </g>
  </g>
</svg>
