<?xml version="1.0" encoding="UTF-8"?>
<!-- Generator: Adobe Illustrator 24.0.1, SVG Export Plug-In . SVG Version: 6.00 Build 0)  -->
<svg xmlns="http://www.w3.org/2000/svg" xmlns:xlink="http://www.w3.org/1999/xlink" version="1.1" id="Ebene_1" x="0px" y="0px" viewBox="0 0 286.3 286.3" style="enable-background:new 0 0 286.3 286.3;" xml:space="preserve">
<style type="text/css">
	.st0{fill:#FFFFFF;}
	.st1{fill:#354248;}
	.st2{fill:url(#Verlauf_x5F_BASE_1_);}
	.st3{opacity:0.46;fill:url(#Verlauf_x5F_02_1_);enable-background:new    ;}
	.st4{filter:url(#Adobe_OpacityMaskFilter);}
	.st5{fill:url(#SVGID_1_);}
	.st6{mask:url(#Verlauf_x5F_01_3_);fill:url(#Verlauf_x5F_01_1_);}
	.st7{opacity:0.85;fill:url(#Schatten_1_);enable-background:new    ;}
</style>
<g>
	<g>
		<path class="st0" d="M240.5,2.5H45.8c0,0-43.3,0-43.3,43.3v194.7c0,0,0,43.3,43.3,43.3h194.7c0,0,43.3,0,43.3-43.3V45.8    C283.8,45.8,283.8,2.5,240.5,2.5z"></path>
		<path class="st1" d="M240.5,286.3H45.8C0.5,286.3,0,241,0,240.5V45.8C0,0.5,45.3,0,45.8,0h194.7c45.2,0,45.8,45.3,45.8,45.8v194.7    C286.3,285.7,241,286.3,240.5,286.3z M45.8,5C44.1,5,5,5.6,5,45.8v194.7c0,1.7,0.6,40.8,40.8,40.8h194.7c1.7,0,40.8-0.6,40.8-40.8    V45.8c0-1.7-0.6-40.8-40.8-40.8H45.8z"></path>
	</g>
	<g id="Signet_9_">
		
			<linearGradient id="Verlauf_x5F_BASE_1_" gradientUnits="userSpaceOnUse" x1="123.0075" y1="39.6864" x2="179.8487" y2="293.2356" gradientTransform="matrix(1 0 0 -1 0 286)">
			<stop offset="7.368680e-02" style="stop-color:#78C9DA"></stop>
			<stop offset="0.4418" style="stop-color:#5CB88A"></stop>
			<stop offset="0.8125" style="stop-color:#3EAB38"></stop>
		</linearGradient>
		<path id="Verlauf_x5F_BASE_9_" class="st2" d="M213.3,64.5c-37.6-37.4-98.6-37.4-136.2,0c0,0,0,0.1-0.1,0.1l0.1,0.1l0,0L77,64.5    C34,107.4,34,176.8,77.1,219.7c2.7,2.7,5.5,5.2,8.4,7.5c0.7,0.6,1.5,1,2.2,1.6c2.2,1.7,4.5,3.4,6.8,4.9c1.3,0.9,2.7,1.6,4,2.4    c1.8,1.1,3.6,2.2,5.4,3.2c2,1.1,4.2,2,6.3,2.9c1.2,0.5,2.3,1.1,3.5,1.6c2.4,1,4.9,1.8,7.4,2.6c0.9,0.3,1.8,0.7,2.8,1    c3,0.9,6,1.6,9,2.2c0.4,0.1,0.9,0.2,1.3,0.3c3.1,0.6,6.1,1,9.2,1.3c0.4,0,0.9,0.1,1.3,0.2c31.7,3,64.5-7.5,88.7-31.6l-20-19.9    C250.9,162.4,250.9,101.8,213.3,64.5z M197.2,183.8l-42-41.7l-43.3,43c-0.7-0.6-1.4-1.2-2.1-1.8c-24.1-23.9-24.3-62.5-0.6-86.7    l0,0c0.2-0.2,0.4-0.5,0.6-0.7c24.3-24.1,63.7-24.1,87.9,0c24.3,24.1,24.3,63.2,0,87.4C197.6,183.4,197.4,183.6,197.2,183.8z"></path>
		
			<linearGradient id="Verlauf_x5F_02_1_" gradientUnits="userSpaceOnUse" x1="243.9646" y1="65.3015" x2="69.2603" y2="204.2921" gradientTransform="matrix(1 0 0 -1 0 286)">
			<stop offset="3.155340e-02" style="stop-color:#0AA9BD"></stop>
			<stop offset="0.4437" style="stop-color:#27AA75;stop-opacity:0.8557"></stop>
			<stop offset="0.7395" style="stop-color:#37AB48;stop-opacity:0.7521"></stop>
			<stop offset="0.8883" style="stop-color:#3EAB38;stop-opacity:0.7"></stop>
		</linearGradient>
		<path id="Verlauf_x5F_02_5_" class="st3" d="M213.3,64.5c-37.6-37.4-98.6-37.4-136.2,0c0,0,0,0.1-0.1,0.1l0.1,0.1l0,0L77,64.5    C34,107.4,34,176.8,77.1,219.7c2.7,2.7,5.5,5.2,8.4,7.5c0.7,0.6,1.5,1,2.2,1.6c2.2,1.7,4.5,3.4,6.8,4.9c1.3,0.9,2.7,1.6,4,2.4    c1.8,1.1,3.6,2.2,5.4,3.2c2,1.1,4.2,2,6.3,2.9c1.2,0.5,2.3,1.1,3.5,1.6c2.4,1,4.9,1.8,7.4,2.6c0.9,0.3,1.8,0.7,2.8,1    c3,0.9,6,1.6,9,2.2c0.4,0.1,0.9,0.2,1.3,0.3c3.1,0.6,6.1,1,9.2,1.3c0.4,0,0.9,0.1,1.3,0.2c31.7,3,64.5-7.5,88.7-31.6l-20-19.9    C250.9,162.4,250.9,101.8,213.3,64.5z M197.2,183.8l-42-41.7l-43.3,43c-0.7-0.6-1.4-1.2-2.1-1.8c-24.1-23.9-24.3-62.5-0.6-86.7v0    c0.2-0.2,0.4-0.5,0.6-0.7c24.3-24.1,63.7-24.1,87.9,0c24.3,24.1,24.3,63.2,0,87.4C197.6,183.4,197.4,183.6,197.2,183.8z"></path>
		<defs>
			<filter id="Adobe_OpacityMaskFilter" x="44.7" y="36.4" width="196.8" height="215.4">
				<feColorMatrix type="matrix" values="1 0 0 0 0  0 1 0 0 0  0 0 1 0 0  0 0 0 1 0"></feColorMatrix>
			</filter>
		</defs>
		<mask maskUnits="userSpaceOnUse" x="44.7" y="36.4" width="196.8" height="215.4" id="Verlauf_x5F_01_3_">
			<g class="st4">
				
					<radialGradient id="SVGID_1_" cx="105.7038" cy="147.2151" r="152.7316" gradientTransform="matrix(1 0 0 -1 0 286)" gradientUnits="userSpaceOnUse">
					<stop offset="0" style="stop-color:#FFFFFF"></stop>
					<stop offset="0.137" style="stop-color:#BABAB9"></stop>
					<stop offset="0.2601" style="stop-color:#838483"></stop>
					<stop offset="0.3655" style="stop-color:#5C5C5B"></stop>
					<stop offset="0.4489" style="stop-color:#444443"></stop>
					<stop offset="0.5" style="stop-color:#3A3A39"></stop>
				</radialGradient>
				<path class="st5" d="M213.3,64.5c-37.6-37.4-98.6-37.4-136.2,0c0,0,0,0.1-0.1,0.1l0.1,0.1l0,0L77,64.5      C34,107.4,34,176.8,77.1,219.7c2.7,2.7,5.5,5.2,8.4,7.5c0.7,0.6,1.5,1,2.2,1.6c2.2,1.7,4.5,3.4,6.8,4.9c1.3,0.9,2.7,1.6,4,2.4      c1.8,1.1,3.6,2.2,5.4,3.2c2,1.1,4.2,2,6.3,2.9c1.2,0.5,2.3,1.1,3.5,1.6c2.4,1,4.9,1.8,7.4,2.6c0.9,0.3,1.8,0.7,2.8,1      c3,0.9,6,1.6,9,2.2c0.4,0.1,0.9,0.2,1.3,0.3c3.1,0.6,6.1,1,9.2,1.3c0.4,0,0.9,0.1,1.3,0.2c31.7,3,64.5-7.5,88.7-31.6l-20-19.9      C250.9,162.4,250.9,101.8,213.3,64.5z M197.2,183.8l-42-41.7l-43.3,43c-0.7-0.6-1.4-1.2-2.1-1.8c-24.1-23.9-24.3-62.5-0.6-86.7      l0,0l0,0c0.2-0.2,0.4-0.5,0.6-0.7c24.3-24.1,63.7-24.1,87.9,0c24.3,24.1,24.3,63.2,0,87.4C197.6,183.4,197.4,183.6,197.2,183.8z      "></path>
			</g>
		</mask>
		
			<radialGradient id="Verlauf_x5F_01_1_" cx="143.134" cy="141.868" r="132.1848" gradientTransform="matrix(1 0 0 -1 0 286)" gradientUnits="userSpaceOnUse">
			<stop offset="0" style="stop-color:#03A399"></stop>
			<stop offset="1" style="stop-color:#FFFFFF"></stop>
		</radialGradient>
		<path id="Verlauf_x5F_01_5_" class="st6" d="M213.3,64.5c-37.6-37.4-98.6-37.4-136.2,0c0,0,0,0.1-0.1,0.1l0.1,0.1v0L77,64.5    C34,107.4,34,176.8,77.1,219.7c2.7,2.7,5.5,5.2,8.4,7.5c0.7,0.6,1.5,1,2.2,1.6c2.2,1.7,4.5,3.4,6.8,4.9c1.3,0.9,2.7,1.6,4,2.4    c1.8,1.1,3.6,2.2,5.4,3.2c2,1.1,4.2,2,6.3,2.9c1.2,0.5,2.3,1.1,3.5,1.6c2.4,1,4.9,1.8,7.4,2.6c0.9,0.3,1.8,0.7,2.8,1    c3,0.9,6,1.6,9,2.2c0.4,0.1,0.9,0.2,1.3,0.3c3.1,0.6,6.1,1,9.2,1.3c0.4,0,0.9,0.1,1.3,0.2c31.7,3,64.5-7.5,88.7-31.6l-20-19.9    C250.9,162.4,250.9,101.8,213.3,64.5z M197.2,183.8l-42-41.7l-43.3,43c-0.7-0.6-1.4-1.2-2.1-1.8c-24.1-23.9-24.3-62.5-0.6-86.7    l0,0l0,0c0.2-0.2,0.4-0.5,0.6-0.7c24.3-24.1,63.7-24.1,87.9,0c24.3,24.1,24.3,63.2,0,87.4C197.6,183.4,197.4,183.6,197.2,183.8z"></path>
		
			<linearGradient id="Schatten_1_" gradientUnits="userSpaceOnUse" x1="111.145" y1="255.5878" x2="246.9267" y2="119.8062" gradientTransform="matrix(1 0 0 -1 0 286)">
			<stop offset="0.25" style="stop-color:#044550;stop-opacity:0"></stop>
			<stop offset="1" style="stop-color:#044550"></stop>
		</linearGradient>
		<path id="Schatten_5_" class="st7" d="M213.3,64.5c-37.6-37.4-98.6-37.4-136.2,0l32.2,32c0.2-0.2,0.4-0.4,0.6-0.6    c24.3-24.1,63.7-24.1,87.9,0c24.3,24.1,24.3,63.2,0,87.4c-0.2,0.2-0.4,0.4-0.6,0.6l16.1,16C250.9,162.4,250.9,101.8,213.3,64.5z"></path>
	</g>
</g>
</svg>
