<svg id="visual" viewBox="0 0 900 600" width="900" height="600" xmlns="http://www.w3.org/2000/svg" xmlns:xlink="http://www.w3.org/1999/xlink" version="1.1"><path d="M0 91L13.7 92C27.3 93 54.7 95 82 91C109.3 87 136.7 77 163.8 67C191 57 218 47 245.2 53C272.3 59 299.7 81 327 87C354.3 93 381.7 83 409 75C436.3 67 463.7 61 491 57C518.3 53 545.7 51 573 57C600.3 63 627.7 77 654.8 86C682 95 709 99 736.2 91C763.3 83 790.7 63 818 55C845.3 47 872.7 51 886.3 53L900 55L900 0L886.3 0C872.7 0 845.3 0 818 0C790.7 0 763.3 0 736.2 0C709 0 682 0 654.8 0C627.7 0 600.3 0 573 0C545.7 0 518.3 0 491 0C463.7 0 436.3 0 409 0C381.7 0 354.3 0 327 0C299.7 0 272.3 0 245.2 0C218 0 191 0 163.8 0C136.7 0 109.3 0 82 0C54.7 0 27.3 0 13.7 0L0 0Z" fill="#6198ff"></path><path d="M0 163L13.7 175C27.3 187 54.7 211 82 212C109.3 213 136.7 191 163.8 204C191 217 218 265 245.2 287C272.3 309 299.7 305 327 285C354.3 265 381.7 229 409 217C436.3 205 463.7 217 491 225C518.3 233 545.7 237 573 245C600.3 253 627.7 265 654.8 269C682 273 709 269 736.2 270C763.3 271 790.7 277 818 273C845.3 269 872.7 255 886.3 248L900 241L900 53L886.3 51C872.7 49 845.3 45 818 53C790.7 61 763.3 81 736.2 89C709 97 682 93 654.8 84C627.7 75 600.3 61 573 55C545.7 49 518.3 51 491 55C463.7 59 436.3 65 409 73C381.7 81 354.3 91 327 85C299.7 79 272.3 57 245.2 51C218 45 191 55 163.8 65C136.7 75 109.3 85 82 89C54.7 93 27.3 91 13.7 90L0 89Z" fill="#3c80ff"></path><path d="M0 313L13.7 324C27.3 335 54.7 357 82 348C109.3 339 136.7 299 163.8 303C191 307 218 355 245.2 370C272.3 385 299.7 367 327 341C354.3 315 381.7 281 409 283C436.3 285 463.7 323 491 346C518.3 369 545.7 377 573 387C600.3 397 627.7 409 654.8 406C682 403 709 385 736.2 382C763.3 379 790.7 391 818 382C845.3 373 872.7 343 886.3 328L900 313L900 239L886.3 246C872.7 253 845.3 267 818 271C790.7 275 763.3 269 736.2 268C709 267 682 271 654.8 267C627.7 263 600.3 251 573 243C545.7 235 518.3 231 491 223C463.7 215 436.3 203 409 215C381.7 227 354.3 263 327 283C299.7 303 272.3 307 245.2 285C218 263 191 215 163.8 202C136.7 189 109.3 211 82 210C54.7 209 27.3 185 13.7 173L0 161Z" fill="#0066ff"></path><path d="M0 529L13.7 526C27.3 523 54.7 517 82 518C109.3 519 136.7 527 163.8 534C191 541 218 547 245.2 541C272.3 535 299.7 517 327 505C354.3 493 381.7 487 409 496C436.3 505 463.7 529 491 541C518.3 553 545.7 553 573 543C600.3 533 627.7 513 654.8 514C682 515 709 537 736.2 548C763.3 559 790.7 559 818 558C845.3 557 872.7 555 886.3 554L900 553L900 311L886.3 326C872.7 341 845.3 371 818 380C790.7 389 763.3 377 736.2 380C709 383 682 401 654.8 404C627.7 407 600.3 395 573 385C545.7 375 518.3 367 491 344C463.7 321 436.3 283 409 281C381.7 279 354.3 313 327 339C299.7 365 272.3 383 245.2 368C218 353 191 305 163.8 301C136.7 297 109.3 337 82 346C54.7 355 27.3 333 13.7 322L0 311Z" fill="#0059dd"></path><path d="M0 601L13.7 601C27.3 601 54.7 601 82 601C109.3 601 136.7 601 163.8 601C191 601 218 601 245.2 601C272.3 601 299.7 601 327 601C354.3 601 381.7 601 409 601C436.3 601 463.7 601 491 601C518.3 601 545.7 601 573 601C600.3 601 627.7 601 654.8 601C682 601 709 601 736.2 601C763.3 601 790.7 601 818 601C845.3 601 872.7 601 886.3 601L900 601L900 551L886.3 552C872.7 553 845.3 555 818 556C790.7 557 763.3 557 736.2 546C709 535 682 513 654.8 512C627.7 511 600.3 531 573 541C545.7 551 518.3 551 491 539C463.7 527 436.3 503 409 494C381.7 485 354.3 491 327 503C299.7 515 272.3 533 245.2 539C218 545 191 539 163.8 532C136.7 525 109.3 517 82 516C54.7 515 27.3 521 13.7 524L0 527Z" fill="#004cbb"></path></svg>